<svg baseProfile="basic" xmlns="http://www.w3.org/2000/svg" width="111" height="54" viewBox="0 0 111 54"><path fill="#FFF" d="M6.1 16.3l.8-.4 15.9-8.3c-.2-1.1-1.3-1.9-2.4-1.8L5.8 7c-1.2.1-2.1 1.2-2 2.4l.2 2.1c.1 1.2-.7 2.3-1.9 2.4L0 14l3.2 32.4L6 17.2l.1-.9z"/><g fill="#FFF"><path d="M22.4 25h-3.9v4.7h3.9c1.5 0 2.6-.9 2.6-2.3 0-1.5-1.2-2.4-2.6-2.4z"/><path d="M40.8 0L7.7 17.2 4.1 54l33-2.6L55.7 50l11.9-1 3.6-36.8L40.8 0zM25.3 39.1l-3.8-6.2h-3.1v6.2h-3.7V21.7h8.1c3.6 0 5.8 2.4 5.8 5.6 0 3.1-1.5 4.7-3.4 5.1l4.3 6.6h-4.2zM44.1 25h-8.6v3.7h7.6v3.2h-7.6v3.9h8.6V39H31.9V21.7h12.3V25zm18.7 11.1c-1.8 2-4.2 3.3-7.4 3.3-5.1 0-9.2-3.5-9.2-9s4.2-9 9.2-9c3.6 0 5.9 1.8 7.2 3.9L59.5 27c-.8-1.2-2.3-2.3-4.1-2.3-3.1 0-5.4 2.4-5.4 5.7 0 3.3 2.3 5.7 5.4 5.7 1.5 0 3-.7 3.7-1.3v-1.9h-4.6v-3.3h8.3v6.5z"/></g><path fill="#FFF" d="M71.8 37.3c0-1.1 1-2.1 2.1-2.1s2.1 1 2.1 2.1-1 2.1-2.1 2.1-2.1-1-2.1-2.1zm17.7 1.8l-4.2-6.2h-2.7v6.2h-3.7V21.7H87c3.6 0 5.8 2.4 5.8 5.6 0 3.1-1.9 4.7-3.8 5.1l4.6 6.6h-4.1zm-.4-11.8c0-1.5-1.1-2.3-2.6-2.3h-3.9v4.7h3.9c1.5 0 2.6-.9 2.6-2.4zm6.5 4.9V21.7h3.7V32c0 2.4 1 4.1 3.7 4.1s3.7-1.7 3.7-4.1V21.7h3.8v10.4c0 4.3-2.2 7.3-7.4 7.3-5.3 0-7.5-3-7.5-7.2z"/></svg>