<?xml-stylesheet type="text/css" href="../stylesheets/svg.css"?>
<svg xmlns="http://www.w3.org/2000/svg" type="image/svg+xml" width="99" height="19" viewBox="0 0 99 19" class="logo-image" id="svg">
  <a xmlns="http://www.w3.org/2000/svg" class="logo-image" xlink:href="/" xmlns:xlink="http://www.w3.org/1999/xlink" target="_top">
    <text style="line-height:125%" x="33.008" y="26.52" font-weight="400" font-size="40" font-family="sans-serif" letter-spacing="0" word-spacing="0"/>
    <text id="#dazzle" y="17.828" x=".391" style="line-height:125%;-inkscape-font-specification:'Arial, Bold';text-align:start" font-weight="700" font-size="22.5" font-family="Arial" letter-spacing="0" word-spacing="0"><tspan style="line-height:125%;-inkscape-font-specification:'Arial, Bold';text-align:start" y="17.828" x=".391">M</tspan></text>
    <path d="M27.1.836a7.275 7.13 0 0 0-7.276 7.13 7.275 7.13 0 0 0 7.276 7.128 7.275 7.13 0 0 0 7.275-7.13A7.275 7.13 0 0 0 27.1.837zm0 2.855a4.36 4.272 0 0 1 4.36 4.275 4.36 4.272 0 0 1-4.36 4.273 4.36 4.272 0 0 1-4.36-4.273A4.36 4.272 0 0 1 27.1 3.69zM20.068 16.9h14.258v.928H20.068z"/>
    <circle class="circle" r="1.709" cy="16.266" cx="96.68"/>
    <text y="17.438" x="35.449" style="line-height:125%" font-weight="400" font-size="40" font-family="sans-serif" letter-spacing="0" word-spacing="0"><tspan style="line-height:125%;-inkscape-font-specification:'Arial, Normal';text-align:start" y="17.438" x="35.449" font-size="22.5" font-family="Arial">DEST</tspan></text>
  </a>
</svg>