<svg baseProfile="tiny" xmlns="http://www.w3.org/2000/svg" width="72" height="72" viewBox="0 0 72 72" overflow="scroll"><g fill="#DC3171"><path d="M56.2 20.6c-.5-1.2-1-2-2-3-.9-.9-1.7-1.4-3-2-.9-.4-2.3-.7-4.8-.9-2.7-.1-3.5-.1-10.5-.1s-7.8 0-10.5.2c-2.5.1-3.9.5-4.8.9-1.2.5-2 1-3 2-.9.9-1.4 1.7-2 3-.4.9-.7 2.3-.9 4.8-.1 2.7-.1 3.5-.1 10.5s0 7.8.2 10.4c.1 2.5.5 3.9.9 4.8.5 1.2 1 2 2 3 .9.9 1.7 1.4 3 2 .9.4 2.3.7 4.8.9 2.7.1 3.5.1 10.5.1s7.7 0 10.5-.1c2.5-.1 3.9-.5 4.8-.9 1.2-.5 2-1 3-2 .9-.9 1.4-1.7 2-3 .4-.9.7-2.3.9-4.8.1-2.7.1-3.5.1-10.5 0-6.9 0-7.7-.1-10.5-.2-2.5-.6-3.8-1-4.8zM36 49.4c-7.4 0-13.4-6-13.4-13.4s6-13.4 13.4-13.4 13.4 6 13.4 13.4-6 13.4-13.4 13.4zm13.9-24.2c-1.7 0-3.1-1.4-3.1-3.1 0-1.7 1.4-3.1 3.1-3.1 1.7 0 3.1 1.4 3.1 3.1 0 1.7-1.4 3.1-3.1 3.1z"/><path d="M36 27.3c-4.8 0-8.7 3.9-8.7 8.7s3.9 8.7 8.7 8.7 8.7-3.9 8.7-8.7-3.9-8.7-8.7-8.7z"/><path d="M60.9 0H11.1C5 0 0 5 0 11.1v49.8C0 67 5 72 11.1 72h49.8C67 72 72 67 72 60.9V11.1C72 5 67 0 60.9 0zm1 46.8c-.1 2.7-.6 4.6-1.2 6.3-.7 1.7-1.6 3.2-3 4.6-1.4 1.4-3 2.3-4.7 3-1.7.6-3.5 1.1-6.3 1.2-2.8.1-3.6.1-10.7.1s-7.9 0-10.8-.1c-2.7-.1-4.6-.6-6.3-1.2-1.7-.7-3.2-1.6-4.6-3-1.4-1.4-2.3-3-3-4.7-.6-1.7-1.1-3.5-1.2-6.3-.1-2.8-.1-3.6-.1-10.7s0-7.9.1-10.8c.1-2.7.6-4.6 1.2-6.3.7-1.7 1.6-3.2 3-4.6 1.4-1.4 3-2.3 4.7-3 1.7-.6 3.5-1.1 6.3-1.2 2.8-.1 3.6-.1 10.7-.1s7.9 0 10.8.1c2.7.1 4.6.6 6.3 1.2 1.7.7 3.2 1.6 4.6 3 1.4 1.4 2.3 3 3 4.7.6 1.7 1.1 3.5 1.2 6.3.1 2.8.1 3.6.1 10.7s0 7.9-.1 10.8z"/></g></svg>