<svg baseProfile="tiny" xmlns="http://www.w3.org/2000/svg" width="72" height="72" viewBox="0 0 72 72" overflow="scroll"><g fill="#37AEE2"><path d="M48.6 25.1L26.5 38.8c-.4.2-.6.7-.4 1.2l3 9.5c.1.2.4.2.4 0l.7-6.4c0-.2.1-.5.3-.6L49.2 26c.4-.5-.1-1.2-.6-.9z"/><path d="M60.9 0H11.1C5 0 0 5 0 11.1v49.8C0 67 5 72 11.1 72h49.8C67 72 72 67 72 60.9V11.1C72 5 67 0 60.9 0zM57 21l-6.9 32.8c-.3 1.5-2.1 2.2-3.4 1.3l-10.4-7.6-5.3 5.4c-.9.9-2.5.6-2.9-.7l-3.8-12.1-10.2-3c-1.3-.4-1.4-2.3-.1-2.8l40.2-15.7c1.5-.6 3.1.8 2.8 2.4z"/></g></svg>