<svg baseProfile="tiny" xmlns="http://www.w3.org/2000/svg" width="72" height="72" viewBox="0 0 72 72" overflow="scroll"><path fill="#4D75A3" d="M60.9 0H11.1C5 0 0 5 0 11.1v49.8C0 67 5 72 11.1 72h49.8C67 72 72 67 72 60.9V11.1C72 5 67 0 60.9 0zm-1.8 50.8H53c-2 0-2.3-1.4-5.9-4.9-3-3.1-4.4-3.3-5.1-3.3-.6 0-1.1.4-1.1 1.6v4.6c0 1.4-.8 1.9-4 1.9-5.3 0-11.2-3.3-15.6-9.3-6.6-9-8.3-15.7-8.3-17.1 0-.8.6-1.3 1.4-1.3h5.4c1.4 0 1.9.4 2.4 1.9 2.4 7.2 6.8 13.6 8.7 13.6.7 0 .8-.6.8-2.1V29c0-3.6-2-3.9-2-5.2 0-.5.4-.9 1.1-.9h8.7c1.1 0 1.3.4 1.3 1.8v10c0 1.2.2 1.6.7 1.6.6 0 1.2-.3 2.3-1.6 3.6-3.9 6.5-10.1 6.5-10.1.4-.8.9-1.3 2.1-1.3h5.4c1.1 0 1.5.6 1.3 1.6-.6 2.9-6.8 11.7-6.8 11.7-.6.9-.8 1.4 0 2.4.6.7 2.4 2.3 3.5 3.8 2.7 2.9 4.5 5.3 4.5 6.7 0 1-.6 1.3-1.2 1.3z"/></svg>